<?xml version="1.0" encoding="iso-8859-1"?>
<!-- Generator: Adobe Illustrator 19.0.0, SVG Export Plug-In . SVG Version: 6.00 Build 0)  -->
<svg version="1.1" id="Layer_1" xmlns="http://www.w3.org/2000/svg" xmlns:xlink="http://www.w3.org/1999/xlink" x="0px" y="0px"
	 viewBox="0 0 512 512" style="enable-background:new 0 0 512 512;" xml:space="preserve">
<path style="fill:#BDDEE5;" d="M429.468,133.142H82.532L54.801,497.907h402.396L429.468,133.142z M336.314,327.365
	c-12.863,19.558-68.233,66.067-80.228,66.067c-11.752,0-67.619-46.679-80.398-66.067c-6.394-9.705-10.933-20.419-10.182-34.499
	c1.333-24.922,21.713-45.505,46.669-45.505c25.657,0,43.83,27.377,43.83,27.377s19.264-27.377,43.818-27.377
	c24.957,0,45.338,20.583,46.672,45.505C347.247,306.944,342.722,317.615,336.314,327.365z"/>
<path style="fill:#FF5E8A;" d="M299.821,247.36c-24.554,0-43.818,27.377-43.818,27.377s-18.172-27.377-43.83-27.377
	c-24.956,0-45.335,20.583-46.669,45.505c-0.751,14.079,3.788,24.794,10.182,34.499c12.778,19.389,68.645,66.067,80.398,66.067
	c11.995,0,67.365-46.509,80.228-66.067c6.408-9.75,10.935-20.42,10.179-34.499C345.16,267.944,324.78,247.36,299.821,247.36"/>
<path d="M471.251,496.839L443.52,132.074c-0.558-7.347-6.683-13.025-14.052-13.025h-50.501C376.853,53.045,322.508,0,256,0
	S135.147,53.045,133.033,119.049H82.532c-7.369,0-13.494,5.677-14.052,13.025L40.749,496.839c-0.297,3.912,1.05,7.771,3.716,10.649
	c2.666,2.878,6.412,4.513,10.336,4.513h402.396c3.924,0,7.669-1.636,10.336-4.513C470.201,504.61,471.549,500.749,471.251,496.839z
	 M256,28.186c50.964,0,92.65,40.406,94.749,90.863H161.251C163.349,68.593,205.036,28.186,256,28.186z M70.006,483.814
	l25.587-336.579h37.368v55.812c0,7.784,6.309,14.093,14.093,14.093s14.093-6.309,14.093-14.093v-55.812h189.702v55.812
	c0,7.784,6.31,14.093,14.093,14.093s14.093-6.309,14.093-14.093v-55.812h37.368l25.587,336.579H70.006z"/>
<path d="M398.115,439.915c-0.352-0.846-0.789-1.677-1.297-2.438c-0.507-0.775-1.099-1.494-1.748-2.142
	c-0.648-0.648-1.367-1.24-2.142-1.748c-0.761-0.507-1.578-0.944-2.438-1.297c-0.846-0.352-1.733-0.62-2.635-0.803
	c-1.818-0.366-3.692-0.366-5.496,0c-0.902,0.183-1.79,0.451-2.65,0.803c-0.846,0.352-1.663,0.789-2.424,1.297
	c-0.775,0.507-1.494,1.099-2.142,1.748c-0.648,0.648-1.24,1.367-1.762,2.142c-0.507,0.761-0.93,1.593-1.282,2.438
	c-0.352,0.846-0.634,1.733-0.803,2.635c-0.183,0.916-0.282,1.832-0.282,2.748c0,0.93,0.099,1.846,0.282,2.762
	c0.169,0.902,0.451,1.79,0.803,2.635c0.352,0.846,0.775,1.663,1.282,2.424c0.521,0.775,1.113,1.494,1.762,2.142
	c0.648,0.662,1.367,1.24,2.142,1.762c0.761,0.507,1.578,0.944,2.424,1.297c0.86,0.352,1.748,0.62,2.65,0.803
	c0.902,0.183,1.832,0.282,2.748,0.282c0.916,0,1.846-0.099,2.748-0.282c0.902-0.183,1.79-0.451,2.635-0.803
	c0.86-0.352,1.677-0.789,2.438-1.297c0.775-0.521,1.494-1.099,2.142-1.762c0.648-0.648,1.24-1.367,1.748-2.142
	c0.507-0.761,0.944-1.578,1.297-2.424c0.352-0.846,0.62-1.733,0.803-2.635c0.183-0.916,0.282-1.832,0.282-2.762
	c0-0.916-0.099-1.832-0.282-2.748C398.735,441.649,398.467,440.761,398.115,439.915z"/>
<path d="M345.643,431.211l-219.022-0.131l9.633-176.588c0.424-7.772-5.533-14.416-13.305-14.84
	c-7.751-0.419-14.416,5.533-14.84,13.305L97.665,444.397c-0.21,3.863,1.177,7.644,3.836,10.454s6.359,4.404,10.227,4.406
	l233.896,0.14c0.003,0,0.006,0,0.008,0c7.779,0,14.089-6.305,14.093-14.085C359.734,437.529,353.427,431.217,345.643,431.211z"/>
<path d="M360.567,292.112c-1.766-32.998-28.448-58.846-60.744-58.846c-18.566,0-33.894,10.756-43.714,20.112
	c-9.712-9.362-24.989-20.112-43.934-20.112c-6.056,0-11.913,0.909-17.446,2.603c-1.845,0.565-3.653,1.216-5.42,1.952
	c-4.42,1.836-8.583,4.19-12.419,6.99c-14.575,10.637-24.408,27.71-25.458,47.304c-0.066,1.247-0.099,2.471-0.1,3.673
	c-0.006,9.612,2.01,17.783,4.727,24.584c2.378,5.95,5.293,10.852,7.861,14.75c5.027,7.627,14.581,17.605,24.87,27.186
	c6.174,5.749,12.612,11.353,18.496,16.223c21.905,18.124,33.883,24.919,40.791,27.469c4.145,1.529,6.465,1.529,8.008,1.529
	c3.808,0,13.921,0,48.79-28.949c2.92-2.424,5.98-5.034,9.076-7.755c1.967-1.729,3.949-3.505,5.921-5.306
	c10.144-9.263,19.978-19.21,26.014-27.303c0.795-1.065,1.549-2.111,2.203-3.106c0.733-1.116,1.495-2.313,2.265-3.594
	c5-8.323,10.325-20.146,10.312-35.734C360.665,294.577,360.633,293.355,360.567,292.112z M254.753,378.217
	c-15.006-7.736-57.06-43.076-67.297-58.608c-6.006-9.115-8.363-16.889-7.877-25.991c0.95-17.736,15.571-32.166,32.596-32.166
	c14.64,0,28.148,15.249,32.087,21.079c0.644,0.97,1.397,1.843,2.237,2.611c2.52,2.301,5.823,3.639,9.314,3.687l0,0l0,0
	c0.001,0,0.004,0,0.006,0c4.669,0.049,9.034-2.177,11.711-5.981c3.905-5.55,18.221-21.395,32.293-21.395
	c17.026,0,31.649,14.43,32.597,32.168c0.031,0.575,0.051,1.143,0.059,1.707c0.134,8.442-2.231,15.607-7.943,24.297
	c-3.983,6.054-12.699,15.056-22.752,24.26c-1.36,1.246-2.75,2.495-4.15,3.74c-0.326,0.289-0.647,0.579-0.972,0.867
	c-0.061,0.054-0.121,0.106-0.182,0.159c-6.014,5.309-12.277,10.528-18.136,15.126c-0.135,0.106-0.265,0.206-0.4,0.311
	c-9.137,7.149-17.249,12.759-21.825,14.792C255.693,378.688,255.238,378.468,254.753,378.217z"/>
<g>
</g>
<g>
</g>
<g>
</g>
<g>
</g>
<g>
</g>
<g>
</g>
<g>
</g>
<g>
</g>
<g>
</g>
<g>
</g>
<g>
</g>
<g>
</g>
<g>
</g>
<g>
</g>
<g>
</g>
</svg>
